<?xml version="1.0" encoding="UTF-8" standalone="no"?>
<!-- Created with Inkscape (http://www.inkscape.org/) -->

<svg
   xmlns:dc="http://purl.org/dc/elements/1.1/"
   xmlns:cc="http://creativecommons.org/ns#"
   xmlns:rdf="http://www.w3.org/1999/02/22-rdf-syntax-ns#"
   xmlns:svg="http://www.w3.org/2000/svg"
   xmlns="http://www.w3.org/2000/svg"
   xmlns:sodipodi="http://sodipodi.sourceforge.net/DTD/sodipodi-0.dtd"
   xmlns:inkscape="http://www.inkscape.org/namespaces/inkscape"
   width="401.85236"
   height="409.23669"
   id="svg2"
   version="1.1"
   inkscape:version="0.48.5 r10040"
   sodipodi:docname="arobase-symbol.svg">
  <defs
     id="defs4" />
  <sodipodi:namedview
     id="base"
     pagecolor="#ffffff"
     bordercolor="#666666"
     borderopacity="1.0"
     inkscape:pageopacity="0.0"
     inkscape:pageshadow="2"
     inkscape:zoom="0.7"
     inkscape:cx="87.162274"
     inkscape:cy="258.73061"
     inkscape:document-units="px"
     inkscape:current-layer="layer1"
     showgrid="false"
     fit-margin-top="0"
     fit-margin-left="0"
     fit-margin-right="0"
     fit-margin-bottom="0"
     inkscape:window-width="1920"
     inkscape:window-height="1055"
     inkscape:window-x="0"
     inkscape:window-y="0"
     inkscape:window-maximized="1" />
  <metadata
     id="metadata7">
    <rdf:RDF>
      <cc:Work
         rdf:about="">
        <dc:format>image/svg+xml</dc:format>
        <dc:type
           rdf:resource="http://purl.org/dc/dcmitype/StillImage" />
        <dc:title></dc:title>
      </cc:Work>
    </rdf:RDF>
  </metadata>
  <g
     inkscape:label="Calque 1"
     inkscape:groupmode="layer"
     id="layer1"
     transform="translate(-141.40915,-381.85612)">
    <path
       style="fill:#000000;stroke:none"
       d="m 308.19281,788.30598 c -43.86022,-6.8323 -87.50646,-29.47742 -115.18436,-59.76146 -22.79388,-24.94012 -40.31152,-59.77322 -47.85202,-95.1517 -10.60254,-49.74498 1.82112,-115.30678 30.59978,-161.48024 53.83754,-86.3788 169.33572,-115.0736 267.7656,-66.52466 79.62108,39.27178 116.00946,119.2068 92.86806,204.0049 -5.3023,19.42944 -17.19936,47.36452 -23.42354,55 -7.86424,9.64742 -24.57686,22.6944 -36.44452,28.45104 -15.75702,7.64322 -36.22806,7.61376 -52.86026,-0.076 -15.21488,-7.03452 -27.70094,-17.30336 -31.96466,-26.28852 -1.84952,-3.89754 -3.99552,-7.07864 -4.76892,-7.0691 -0.77338,0.01 -4.55616,2.99566 -8.40616,6.6358 -21.1975,20.04204 -58.90706,32.00944 -87.05436,27.62732 -35.43706,-5.51712 -59.42308,-28.7107 -64.85486,-62.71228 -5.13504,-32.14402 10.08234,-78.93188 36.76196,-113.02958 31.49334,-40.24986 75.19286,-58.12192 116.07734,-47.47286 48.40764,12.60858 63.28794,49.08042 48.93248,119.93418 -5.88888,29.06562 -6.27578,48.01908 -1.14018,55.85698 4.74432,7.24074 19.28078,13.71186 26.6976,11.88484 12.22134,-3.01058 24.94912,-13.80434 31.53336,-26.74182 15.0072,-29.48796 21.25208,-74.1893 14.25678,-102.05158 -14.27914,-56.87398 -68.24038,-98.63814 -137.12782,-106.1323 -57.1928,-6.2219 -112.57838,15.95466 -143.82308,57.58724 -26.63304,35.48768 -41.3958,88.26092 -36.2574,129.61136 4.86216,39.12742 18.43984,67.62566 44.8782,94.19506 15.3512,15.42728 21.02322,19.63238 37.11998,27.5198 28.5888,14.00852 45.18382,17.72338 80,17.90828 23.93122,0.127 32.32092,-0.65858 48,-4.49508 33.25332,-8.13674 54.96804,-18.02366 86.75262,-39.49932 8.66394,-5.8539 17.8466,-10.64346 20.4059,-10.64346 7.36884,0 14.89674,4.30552 17.99148,10.29006 6.88832,13.32056 1.91824,22.0645 -21.41144,37.66946 -57.64312,38.55688 -125.30606,54.73028 -188.06756,44.95364 z M 327.04985,650.0851 c 11.91122,-3.79084 29.3646,-16.79178 45.04386,-33.55294 10.7848,-11.52898 12.3845,-14.35732 15.25244,-26.96664 11.85274,-52.11256 8.15328,-71.54076 -15.0928,-79.26186 -14.04788,-4.66596 -28.3275,-3.13574 -44.3512,4.75268 -49.64234,24.43886 -81.08374,113.3756 -47.09946,133.22792 12.73116,7.43704 26.81444,7.98544 46.24716,1.80084 z"
       id="path2996"
       inkscape:connector-curvature="0" />
  </g>
</svg>
